<svg width="1196" height="377" viewBox="0 0 1196 377" fill="none" xmlns="http://www.w3.org/2000/svg">
<g clip-path="url(#clip0_8_133)">
<rect x="64.4" y="34.4" width="9.6" height="36" fill="#222222"/>
<rect x="64.4" y="34.4" width="36" height="9.6" fill="#222222"/>
<rect width="9.6" height="36" transform="matrix(-1 0 0 1 337.2 56.8)" fill="#222222"/>
<rect width="36" height="9.6" transform="matrix(-1 0 0 1 337.2 56.8)" fill="#222222"/>
<rect x="356.8" y="335.2" width="9.6" height="36" transform="rotate(180 356.8 335.2)" fill="#222222"/>
<rect x="356.8" y="335.2" width="36" height="9.6" transform="rotate(180 356.8 335.2)" fill="#222222"/>
<rect width="9.6" height="36" transform="matrix(1 0 0 -1 51.6 343.2)" fill="#222222"/>
<rect width="36" height="9.6" transform="matrix(1 0 0 -1 51.6 343.2)" fill="#222222"/>
<path d="M318.4 323.306V296.8H343.602L321.637 95.1998H298.8V72.7418L102.8 49.4166V72.8004H79.2107L64.8133 304.8H89.9998V330.013L318.4 323.306ZM168.712 230.772V208.6H234.37L258.547 159.05L168.712 152.367L131.867 97.9821L257.009 112.732L293.636 153.966L274.8 223.6L216.8 219.8L293.636 289.18H207.8L168.712 230.772ZM116.375 266.756L125.535 110.054L160.414 162.138L152.6 289.18L116.375 266.756Z" fill="#222222"/>
<path d="M1023.78 144.4L1023.93 144.598L1069.7 205.068L1114.89 144.6L1115.04 144.4H1146.46L1145.91 145.187L1082.74 235.257V289.4H1056.47V235.057L993.49 145.187L992.938 144.4H1023.78Z" fill="#222222" stroke="#222222"/>
<path d="M898.395 144.2V258.3C898.395 260.233 899.962 261.8 901.895 261.8H1010.1V289.4H872.317V144.2H898.395Z" fill="#222222" stroke="#222222"/>
<path d="M843.722 144.4V172H788.059V289.4H761.791V172H705.938V144.4H843.722Z" fill="#222222" stroke="#222222"/>
<path d="M678.772 144.4V172H573.594C571.68 172 570.167 172.561 569.009 173.653C567.991 174.73 567.446 176.319 567.446 178.5V255.3C567.446 257.33 567.983 258.932 569.018 260.154C570.174 261.24 571.684 261.8 573.594 261.8H678.772V289.4H568.275C563.369 289.4 558.845 288.107 554.712 285.524L554.706 285.52C550.712 282.943 547.491 279.551 545.046 275.351L545.042 275.345C542.593 271.001 541.369 266.25 541.369 261.1V172.7C541.369 167.552 542.591 162.867 545.042 158.654C547.487 154.32 550.708 150.859 554.706 148.28L554.712 148.276L555.101 148.038C559.128 145.613 563.523 144.4 568.275 144.4H678.772Z" fill="#222222" stroke="#222222"/>
<path d="M508.054 144.4V172H410.867C408.934 172 407.367 173.567 407.367 175.5V203H488.296V230.8H407.367V258.3C407.367 260.233 408.934 261.8 410.867 261.8H508.054V289.4H381.1V144.4H508.054Z" fill="#222222" stroke="#222222"/>
</g>
<defs>
<clipPath id="clip0_8_133">
<rect width="1196" height="377" fill="white"/>
</clipPath>
</defs>
</svg>
