<svg width="1196" height="377" viewBox="0 0 1196 377" fill="none" xmlns="http://www.w3.org/2000/svg">
<g clip-path="url(#clip0_37_344)">
<rect x="64.4" y="34.4" width="9.6" height="36" fill="white"/>
<rect x="64.4" y="34.4" width="36" height="9.6" fill="white"/>
<rect width="9.6" height="36" transform="matrix(-1 0 0 1 337.2 56.8)" fill="white"/>
<rect width="36" height="9.6" transform="matrix(-1 0 0 1 337.2 56.8)" fill="white"/>
<rect x="356.8" y="335.2" width="9.6" height="36" transform="rotate(180 356.8 335.2)" fill="white"/>
<rect x="356.8" y="335.2" width="36" height="9.6" transform="rotate(180 356.8 335.2)" fill="white"/>
<rect width="9.6" height="36" transform="matrix(1 0 0 -1 51.6 343.2)" fill="white"/>
<rect width="36" height="9.6" transform="matrix(1 0 0 -1 51.6 343.2)" fill="white"/>
<path d="M318.4 323.306V296.8H343.602L321.637 95.1998H298.8V72.7418L102.8 49.4166V72.8004H79.2108L64.8133 304.8H89.9998V330.013L318.4 323.306ZM168.712 230.772V208.6H234.37L258.547 159.05L168.712 152.367L131.867 97.9821L257.009 112.732L293.636 153.966L274.8 223.6L216.8 219.8L293.636 289.18H207.8L168.712 230.772ZM116.375 266.756L125.535 110.054L160.414 162.138L152.6 289.18L116.375 266.756Z" fill="white"/>
<path d="M1023.78 144.4L1023.93 144.598L1069.7 205.068L1114.89 144.6L1115.04 144.4H1146.46L1145.91 145.187L1082.74 235.257V289.4H1056.47V235.057L993.49 145.187L992.938 144.4H1023.78Z" fill="white" stroke="white"/>
<path d="M898.395 144.2V258.3C898.395 260.233 899.962 261.8 901.895 261.8H1010.1V289.4H872.317V144.2H898.395Z" fill="white" stroke="white"/>
<path d="M843.722 144.4V172H788.058V289.4H761.791V172H705.938V144.4H843.722Z" fill="white" stroke="white"/>
<path d="M678.772 144.4V172H573.594C571.68 172 570.167 172.561 569.009 173.653C567.991 174.73 567.446 176.319 567.446 178.5V255.3C567.446 257.33 567.983 258.932 569.018 260.154C570.174 261.24 571.684 261.8 573.594 261.8H678.772V289.4H568.275C563.369 289.4 558.845 288.107 554.712 285.524L554.706 285.52C550.712 282.943 547.491 279.551 545.046 275.351L545.042 275.345C542.593 271.001 541.369 266.25 541.369 261.1V172.7C541.369 167.552 542.591 162.867 545.042 158.654C547.487 154.32 550.708 150.859 554.706 148.28L554.712 148.276L555.101 148.038C559.128 145.613 563.523 144.4 568.275 144.4H678.772Z" fill="white" stroke="white"/>
<path d="M508.054 144.4V172H410.867C408.934 172 407.367 173.567 407.367 175.5V203H488.296V230.8H407.367V258.3C407.367 260.233 408.934 261.8 410.867 261.8H508.054V289.4H381.1V144.4H508.054Z" fill="white" stroke="white"/>
<path d="M1142.07 335.64V333.016H1144.57V335.64H1142.07Z" fill="white"/>
<path d="M1119.99 335.64C1119.32 335.64 1118.7 335.469 1118.13 335.128C1117.59 334.765 1117.14 334.296 1116.79 333.72C1116.47 333.123 1116.3 332.472 1116.3 331.768V320.952C1116.3 320.248 1116.47 319.608 1116.79 319.032C1117.14 318.435 1117.59 317.965 1118.13 317.624C1118.7 317.261 1119.32 317.08 1119.99 317.08H1130.6C1131.29 317.08 1131.91 317.261 1132.46 317.624C1133.03 317.965 1133.48 318.435 1133.8 319.032C1134.15 319.608 1134.32 320.248 1134.32 320.952V327.672H1118.8V331.768C1118.8 332.109 1118.92 332.408 1119.14 332.664C1119.38 332.899 1119.67 333.016 1119.99 333.016H1134.32V335.64H1119.99ZM1118.8 325.048H1131.79V320.952C1131.79 320.611 1131.67 320.323 1131.42 320.088C1131.2 319.832 1130.93 319.704 1130.6 319.704H1119.99C1119.67 319.704 1119.38 319.832 1119.14 320.088C1118.92 320.323 1118.8 320.611 1118.8 320.952V325.048Z" fill="white"/>
<path d="M1106.7 335.64C1106.03 335.64 1105.41 335.469 1104.84 335.128C1104.29 334.765 1103.84 334.296 1103.5 333.72C1103.17 333.123 1103.01 332.472 1103.01 331.768V311H1105.51V331.768C1105.51 332.109 1105.62 332.408 1105.85 332.664C1106.09 332.899 1106.37 333.016 1106.7 333.016H1109.69V335.64H1106.7Z" fill="white"/>
<path d="M1078.26 343V317.08H1092.59C1093.26 317.08 1093.87 317.261 1094.41 317.624C1094.98 317.965 1095.43 318.435 1095.76 319.032C1096.1 319.608 1096.27 320.248 1096.27 320.952V331.768C1096.27 332.472 1096.1 333.123 1095.76 333.72C1095.43 334.296 1094.98 334.765 1094.41 335.128C1093.87 335.469 1093.26 335.64 1092.59 335.64H1080.76V343H1078.26ZM1081.98 333.016H1092.59C1092.91 333.016 1093.18 332.899 1093.41 332.664C1093.65 332.408 1093.77 332.109 1093.77 331.768V320.952C1093.77 320.611 1093.65 320.323 1093.41 320.088C1093.18 319.832 1092.91 319.704 1092.59 319.704H1081.98C1081.65 319.704 1081.37 319.832 1081.12 320.088C1080.88 320.323 1080.76 320.611 1080.76 320.952V331.768C1080.76 332.109 1080.88 332.408 1081.12 332.664C1081.37 332.899 1081.65 333.016 1081.98 333.016Z" fill="white"/>
<path d="M1043.89 335.64V317.08H1067.24C1067.93 317.08 1068.55 317.261 1069.1 317.624C1069.67 317.965 1070.11 318.435 1070.44 319.032C1070.76 319.608 1070.93 320.248 1070.93 320.952V335.64H1068.46V320.952C1068.46 320.611 1068.34 320.323 1068.09 320.088C1067.85 319.832 1067.56 319.704 1067.24 319.704H1059.89C1059.57 319.704 1059.28 319.832 1059.04 320.088C1058.82 320.323 1058.7 320.611 1058.7 320.952V335.64H1056.17V320.952C1056.17 320.611 1056.05 320.323 1055.81 320.088C1055.59 319.832 1055.31 319.704 1054.99 319.704H1047.61C1047.28 319.704 1047 319.832 1046.76 320.088C1046.53 320.323 1046.42 320.611 1046.42 320.952V335.64H1043.89Z" fill="white"/>
<path d="M1032.92 335.64V317.08H1035.42V335.64H1032.92ZM1032.92 313.624V311H1035.42V313.624H1032.92Z" fill="white"/>
<path d="M1011.02 335.64C1010.34 335.64 1009.72 335.469 1009.16 335.128C1008.61 334.765 1008.16 334.296 1007.81 333.72C1007.49 333.123 1007.33 332.472 1007.33 331.768V331.512H1009.83V331.768C1009.83 332.109 1009.94 332.408 1010.16 332.664C1010.41 332.899 1010.69 333.016 1011.02 333.016H1021.62C1021.95 333.016 1022.22 332.899 1022.45 332.664C1022.69 332.408 1022.81 332.109 1022.81 331.768V328.92C1022.81 328.579 1022.69 328.291 1022.45 328.056C1022.22 327.8 1021.95 327.672 1021.62 327.672H1011.02C1010.34 327.672 1009.72 327.501 1009.16 327.16C1008.61 326.797 1008.16 326.328 1007.81 325.752C1007.49 325.155 1007.33 324.504 1007.33 323.8V320.952C1007.33 320.248 1007.49 319.608 1007.81 319.032C1008.16 318.435 1008.61 317.965 1009.16 317.624C1009.72 317.261 1010.34 317.08 1011.02 317.08H1021.62C1022.31 317.08 1022.93 317.261 1023.48 317.624C1024.05 317.965 1024.5 318.435 1024.82 319.032C1025.17 319.608 1025.34 320.248 1025.34 320.952V321.208H1022.81V320.952C1022.81 320.611 1022.69 320.323 1022.45 320.088C1022.22 319.832 1021.95 319.704 1021.62 319.704H1011.02C1010.69 319.704 1010.41 319.832 1010.16 320.088C1009.94 320.323 1009.83 320.611 1009.83 320.952V323.8C1009.83 324.141 1009.94 324.44 1010.16 324.696C1010.41 324.931 1010.69 325.048 1011.02 325.048H1021.62C1022.31 325.048 1022.93 325.229 1023.48 325.592C1024.05 325.933 1024.5 326.403 1024.82 327C1025.17 327.576 1025.34 328.216 1025.34 328.92V331.768C1025.34 332.472 1025.17 333.123 1024.82 333.72C1024.5 334.296 1024.05 334.765 1023.48 335.128C1022.93 335.469 1022.31 335.64 1021.62 335.64H1011.02Z" fill="white"/>
<path d="M972.553 335.64C971.882 335.64 971.262 335.469 970.693 335.128C970.145 334.765 969.698 334.296 969.352 333.72C969.027 333.123 968.865 332.472 968.865 331.768V320.952C968.865 320.248 969.027 319.608 969.352 319.032C969.698 318.435 970.145 317.965 970.693 317.624C971.262 317.261 971.882 317.08 972.553 317.08H983.16C983.851 317.08 984.471 317.261 985.02 317.624C985.589 317.965 986.036 318.435 986.361 319.032C986.706 319.608 986.879 320.248 986.879 320.952V327.672H971.364V331.768C971.364 332.109 971.476 332.408 971.699 332.664C971.943 332.899 972.228 333.016 972.553 333.016H986.879V335.64H972.553ZM971.364 325.048H984.349V320.952C984.349 320.611 984.227 320.323 983.983 320.088C983.76 319.832 983.485 319.704 983.16 319.704H972.553C972.228 319.704 971.943 319.832 971.699 320.088C971.476 320.323 971.364 320.611 971.364 320.952V325.048Z" fill="white"/>
<path d="M947.422 335.64C946.731 335.64 946.101 335.469 945.532 335.128C944.984 334.765 944.536 334.296 944.191 333.72C943.866 333.123 943.703 332.472 943.703 331.768V320.952C943.703 320.248 943.866 319.608 944.191 319.032C944.536 318.435 944.984 317.965 945.532 317.624C946.101 317.261 946.731 317.08 947.422 317.08H959.218V311H961.718V335.64H947.422ZM947.422 333.016H958.029C958.355 333.016 958.629 332.899 958.852 332.664C959.096 332.408 959.218 332.109 959.218 331.768V320.952C959.218 320.611 959.096 320.323 958.852 320.088C958.629 319.832 958.355 319.704 958.029 319.704H947.422C947.097 319.704 946.812 319.832 946.569 320.088C946.345 320.323 946.233 320.611 946.233 320.952V331.768C946.233 332.109 946.345 332.408 946.569 332.664C946.812 332.899 947.097 333.016 947.422 333.016Z" fill="white"/>
<path d="M922.539 335.64C921.869 335.64 921.249 335.469 920.68 335.128C920.131 334.765 919.684 334.296 919.339 333.72C919.014 333.123 918.851 332.472 918.851 331.768V325.048H934.335V320.952C934.335 320.611 934.214 320.323 933.97 320.088C933.746 319.832 933.472 319.704 933.147 319.704H918.851V317.08H933.147C933.838 317.08 934.457 317.261 935.006 317.624C935.575 317.965 936.022 318.435 936.347 319.032C936.693 319.608 936.865 320.248 936.865 320.952V335.64H922.539ZM922.539 333.016H934.335V327.672H921.351V331.768C921.351 332.109 921.462 332.408 921.686 332.664C921.93 332.899 922.214 333.016 922.539 333.016Z" fill="white"/>
<path d="M884.544 335.64V317.08H907.892C908.583 317.08 909.203 317.261 909.752 317.624C910.321 317.965 910.768 318.435 911.093 319.032C911.418 319.608 911.58 320.248 911.58 320.952V335.64H909.111V320.952C909.111 320.611 908.989 320.323 908.746 320.088C908.502 319.832 908.217 319.704 907.892 319.704H900.546C900.221 319.704 899.937 319.832 899.693 320.088C899.469 320.323 899.358 320.611 899.358 320.952V335.64H896.828V320.952C896.828 320.611 896.706 320.323 896.462 320.088C896.238 319.832 895.964 319.704 895.639 319.704H888.262C887.937 319.704 887.653 319.832 887.409 320.088C887.185 320.323 887.074 320.611 887.074 320.952V335.64H884.544Z" fill="white"/>
<path d="M845.871 335.64V317.08H860.197C860.867 317.08 861.477 317.261 862.026 317.624C862.595 317.965 863.042 318.435 863.367 319.032C863.712 319.608 863.885 320.248 863.885 320.952V335.64H861.385V320.952C861.385 320.611 861.264 320.323 861.02 320.088C860.796 319.832 860.522 319.704 860.197 319.704H849.589C849.264 319.704 848.98 319.832 848.736 320.088C848.492 320.323 848.37 320.611 848.37 320.952V335.64H845.871Z" fill="white"/>
<path d="M824.237 335.64C823.567 335.64 822.947 335.469 822.378 335.128C821.829 334.765 821.382 334.296 821.037 333.72C820.711 333.123 820.549 332.472 820.549 331.768V320.952C820.549 320.248 820.711 319.608 821.037 319.032C821.382 318.435 821.829 317.965 822.378 317.624C822.947 317.261 823.567 317.08 824.237 317.08H834.845C835.535 317.08 836.155 317.261 836.704 317.624C837.273 317.965 837.72 318.435 838.045 319.032C838.391 319.608 838.563 320.248 838.563 320.952V331.768C838.563 332.472 838.391 333.123 838.045 333.72C837.72 334.296 837.273 334.765 836.704 335.128C836.155 335.469 835.535 335.64 834.845 335.64H824.237ZM824.237 333.016H834.845C835.17 333.016 835.444 332.899 835.668 332.664C835.911 332.408 836.033 332.109 836.033 331.768V320.952C836.033 320.611 835.911 320.323 835.668 320.088C835.444 319.832 835.17 319.704 834.845 319.704H824.237C823.912 319.704 823.627 319.832 823.384 320.088C823.16 320.323 823.048 320.611 823.048 320.952V331.768C823.048 332.109 823.16 332.408 823.384 332.664C823.627 332.899 823.912 333.016 824.237 333.016Z" fill="white"/>
<path d="M809.667 335.64V317.08H812.166V335.64H809.667ZM809.667 313.624V311H812.166V313.624H809.667Z" fill="white"/>
<path d="M796.163 335.64C795.472 335.64 794.842 335.469 794.273 335.128C793.724 334.765 793.287 334.296 792.962 333.72C792.637 333.123 792.474 332.472 792.474 331.768V311H794.974V317.08H802.625V319.704H794.974V331.768C794.974 332.109 795.086 332.408 795.309 332.664C795.553 332.899 795.838 333.016 796.163 333.016H802.625V335.64H796.163Z" fill="white"/>
<path d="M771.11 335.64C770.439 335.64 769.819 335.469 769.25 335.128C768.702 334.765 768.255 334.296 767.909 333.72C767.584 333.123 767.422 332.472 767.422 331.768V320.952C767.422 320.248 767.584 319.608 767.909 319.032C768.255 318.435 768.702 317.965 769.25 317.624C769.819 317.261 770.439 317.08 771.11 317.08H785.375V319.704H771.11C770.785 319.704 770.5 319.832 770.256 320.088C770.033 320.323 769.921 320.611 769.921 320.952V331.768C769.921 332.109 770.033 332.408 770.256 332.664C770.5 332.899 770.785 333.016 771.11 333.016H785.436V335.64H771.11Z" fill="white"/>
<path d="M746.028 335.64C745.358 335.64 744.738 335.469 744.169 335.128C743.62 334.765 743.173 334.296 742.828 333.72C742.503 333.123 742.34 332.472 742.34 331.768V320.952C742.34 320.248 742.503 319.608 742.828 319.032C743.173 318.435 743.62 317.965 744.169 317.624C744.738 317.261 745.358 317.08 746.028 317.08H756.636C757.327 317.08 757.946 317.261 758.495 317.624C759.064 317.965 759.511 318.435 759.836 319.032C760.182 319.608 760.354 320.248 760.354 320.952V327.672H744.84V331.768C744.84 332.109 744.951 332.408 745.175 332.664C745.419 332.899 745.703 333.016 746.028 333.016H760.354V335.64H746.028ZM744.84 325.048H757.824V320.952C757.824 320.611 757.703 320.323 757.459 320.088C757.235 319.832 756.961 319.704 756.636 319.704H746.028C745.703 319.704 745.419 319.832 745.175 320.088C744.951 320.323 744.84 320.611 744.84 320.952V325.048Z" fill="white"/>
<path d="M722.201 335.64V320.952C722.201 320.248 722.363 319.608 722.688 319.032C723.034 318.435 723.481 317.965 724.029 317.624C724.598 317.261 725.218 317.08 725.889 317.08H735.826V319.704H725.889C725.564 319.704 725.279 319.832 725.035 320.088C724.812 320.323 724.7 320.611 724.7 320.952V335.64H722.201Z" fill="white"/>
<path d="M702.031 335.64V320.952C702.031 320.248 702.193 319.608 702.518 319.032C702.864 318.435 703.311 317.965 703.86 317.624C704.429 317.261 705.048 317.08 705.719 317.08H715.656V319.704H705.719C705.394 319.704 705.109 319.832 704.866 320.088C704.642 320.323 704.53 320.611 704.53 320.952V335.64H702.031Z" fill="white"/>
<path d="M680.309 335.64C679.639 335.64 679.019 335.469 678.45 335.128C677.901 334.765 677.454 334.296 677.109 333.72C676.784 333.123 676.621 332.472 676.621 331.768V320.952C676.621 320.248 676.784 319.608 677.109 319.032C677.454 318.435 677.901 317.965 678.45 317.624C679.019 317.261 679.639 317.08 680.309 317.08H690.917C691.608 317.08 692.227 317.261 692.776 317.624C693.345 317.965 693.792 318.435 694.117 319.032C694.463 319.608 694.635 320.248 694.635 320.952V331.768C694.635 332.472 694.463 333.123 694.117 333.72C693.792 334.296 693.345 334.765 692.776 335.128C692.227 335.469 691.608 335.64 690.917 335.64H680.309ZM680.309 333.016H690.917C691.242 333.016 691.516 332.899 691.74 332.664C691.984 332.408 692.105 332.109 692.105 331.768V320.952C692.105 320.611 691.984 320.323 691.74 320.088C691.516 319.832 691.242 319.704 690.917 319.704H680.309C679.984 319.704 679.7 319.832 679.456 320.088C679.232 320.323 679.121 320.611 679.121 320.952V331.768C679.121 332.109 679.232 332.408 679.456 332.664C679.7 332.899 679.984 333.016 680.309 333.016Z" fill="white"/>
<path d="M654.543 335.64C653.873 335.64 653.253 335.469 652.684 335.128C652.135 334.765 651.688 334.296 651.343 333.72C651.018 333.123 650.855 332.472 650.855 331.768V320.952C650.855 320.248 651.018 319.608 651.343 319.032C651.688 318.435 652.135 317.965 652.684 317.624C653.253 317.261 653.873 317.08 654.543 317.08H668.808V319.704H654.543C654.218 319.704 653.934 319.832 653.69 320.088C653.466 320.323 653.354 320.611 653.354 320.952V331.768C653.354 332.109 653.466 332.408 653.69 332.664C653.934 332.899 654.218 333.016 654.543 333.016H668.869V335.64H654.543Z" fill="white"/>
<path d="M615.99 335.64C615.319 335.64 614.699 335.469 614.13 335.128C613.582 334.765 613.135 334.296 612.789 333.72C612.464 333.123 612.301 332.472 612.301 331.768V320.952C612.301 320.248 612.464 319.608 612.789 319.032C613.135 318.435 613.582 317.965 614.13 317.624C614.699 317.261 615.319 317.08 615.99 317.08H626.597C627.288 317.08 627.908 317.261 628.456 317.624C629.025 317.965 629.472 318.435 629.798 319.032C630.143 319.608 630.316 320.248 630.316 320.952V327.672H614.801V331.768C614.801 332.109 614.913 332.408 615.136 332.664C615.38 332.899 615.664 333.016 615.99 333.016H630.316V335.64H615.99ZM614.801 325.048H627.786V320.952C627.786 320.611 627.664 320.323 627.42 320.088C627.196 319.832 626.922 319.704 626.597 319.704H615.99C615.664 319.704 615.38 319.832 615.136 320.088C614.913 320.323 614.801 320.611 614.801 320.952V325.048Z" fill="white"/>
<path d="M593.41 335.64L583.656 317.08H586.582L594.873 333.08L603.164 317.08H606.09L596.306 335.64H593.41Z" fill="white"/>
<path d="M573.837 335.64V317.08H576.337V335.64H573.837ZM573.837 313.624V311H576.337V313.624H573.837Z" fill="white"/>
<path d="M560.333 335.64C559.642 335.64 559.012 335.469 558.443 335.128C557.895 334.765 557.458 334.296 557.133 333.72C556.807 333.123 556.645 332.472 556.645 331.768V311H559.144V317.08H566.795V319.704H559.144V331.768C559.144 332.109 559.256 332.408 559.48 332.664C559.723 332.899 560.008 333.016 560.333 333.016H566.795V335.64H560.333Z" fill="white"/>
<path d="M535.28 335.64C534.61 335.64 533.99 335.469 533.421 335.128C532.872 334.765 532.425 334.296 532.08 333.72C531.754 333.123 531.592 332.472 531.592 331.768V320.952C531.592 320.248 531.754 319.608 532.08 319.032C532.425 318.435 532.872 317.965 533.421 317.624C533.99 317.261 534.61 317.08 535.28 317.08H549.545V319.704H535.28C534.955 319.704 534.67 319.832 534.427 320.088C534.203 320.323 534.091 320.611 534.091 320.952V331.768C534.091 332.109 534.203 332.408 534.427 332.664C534.67 332.899 534.955 333.016 535.28 333.016H549.606V335.64H535.28Z" fill="white"/>
<path d="M510.199 335.64C509.528 335.64 508.908 335.469 508.339 335.128C507.791 334.765 507.344 334.296 506.998 333.72C506.673 333.123 506.51 332.472 506.51 331.768V320.952C506.51 320.248 506.673 319.608 506.998 319.032C507.344 318.435 507.791 317.965 508.339 317.624C508.908 317.261 509.528 317.08 510.199 317.08H520.806C521.497 317.08 522.117 317.261 522.665 317.624C523.234 317.965 523.681 318.435 524.007 319.032C524.352 319.608 524.525 320.248 524.525 320.952V327.672H509.01V331.768C509.01 332.109 509.122 332.408 509.345 332.664C509.589 332.899 509.874 333.016 510.199 333.016H524.525V335.64H510.199ZM509.01 325.048H521.995V320.952C521.995 320.611 521.873 320.323 521.629 320.088C521.406 319.832 521.131 319.704 520.806 319.704H510.199C509.874 319.704 509.589 319.832 509.345 320.088C509.122 320.323 509.01 320.611 509.01 320.952V325.048Z" fill="white"/>
<path d="M481.788 343V317.08H496.115C496.785 317.08 497.395 317.261 497.943 317.624C498.512 317.965 498.959 318.435 499.285 319.032C499.63 319.608 499.803 320.248 499.803 320.952V331.768C499.803 332.472 499.63 333.123 499.285 333.72C498.959 334.296 498.512 334.765 497.943 335.128C497.395 335.469 496.785 335.64 496.115 335.64H484.288V343H481.788ZM485.507 333.016H496.115C496.44 333.016 496.714 332.899 496.938 332.664C497.181 332.408 497.303 332.109 497.303 331.768V320.952C497.303 320.611 497.181 320.323 496.938 320.088C496.714 319.832 496.44 319.704 496.115 319.704H485.507C485.182 319.704 484.898 319.832 484.654 320.088C484.41 320.323 484.288 320.611 484.288 320.952V331.768C484.288 332.109 484.41 332.408 484.654 332.664C484.898 332.899 485.182 333.016 485.507 333.016Z" fill="white"/>
<path d="M459.825 335.64C459.155 335.64 458.535 335.469 457.966 335.128C457.417 334.765 456.97 334.296 456.625 333.72C456.3 333.123 456.137 332.472 456.137 331.768V331.512H458.637V331.768C458.637 332.109 458.748 332.408 458.972 332.664C459.216 332.899 459.5 333.016 459.825 333.016H470.433C470.758 333.016 471.032 332.899 471.256 332.664C471.5 332.408 471.622 332.109 471.622 331.768V328.92C471.622 328.579 471.5 328.291 471.256 328.056C471.032 327.8 470.758 327.672 470.433 327.672H459.825C459.155 327.672 458.535 327.501 457.966 327.16C457.417 326.797 456.97 326.328 456.625 325.752C456.3 325.155 456.137 324.504 456.137 323.8V320.952C456.137 320.248 456.3 319.608 456.625 319.032C456.97 318.435 457.417 317.965 457.966 317.624C458.535 317.261 459.155 317.08 459.825 317.08H470.433C471.124 317.08 471.744 317.261 472.292 317.624C472.861 317.965 473.308 318.435 473.633 319.032C473.979 319.608 474.152 320.248 474.152 320.952V321.208H471.622V320.952C471.622 320.611 471.5 320.323 471.256 320.088C471.032 319.832 470.758 319.704 470.433 319.704H459.825C459.5 319.704 459.216 319.832 458.972 320.088C458.748 320.323 458.637 320.611 458.637 320.952V323.8C458.637 324.141 458.748 324.44 458.972 324.696C459.216 324.931 459.5 325.048 459.825 325.048H470.433C471.124 325.048 471.744 325.229 472.292 325.592C472.861 325.933 473.308 326.403 473.633 327C473.979 327.576 474.152 328.216 474.152 328.92V331.768C474.152 332.472 473.979 333.123 473.633 333.72C473.308 334.296 472.861 334.765 472.292 335.128C471.744 335.469 471.124 335.64 470.433 335.64H459.825Z" fill="white"/>
<path d="M436.089 335.64V320.952C436.089 320.248 436.252 319.608 436.577 319.032C436.922 318.435 437.369 317.965 437.918 317.624C438.487 317.261 439.107 317.08 439.777 317.08H449.714V319.704H439.777C439.452 319.704 439.168 319.832 438.924 320.088C438.7 320.323 438.589 320.611 438.589 320.952V335.64H436.089Z" fill="white"/>
<path d="M414.219 335.64C413.548 335.64 412.928 335.469 412.36 335.128C411.811 334.765 411.364 334.296 411.018 333.72C410.693 333.123 410.531 332.472 410.531 331.768V320.952C410.531 320.248 410.693 319.608 411.018 319.032C411.364 318.435 411.811 317.965 412.36 317.624C412.928 317.261 413.548 317.08 414.219 317.08H424.826C425.517 317.08 426.137 317.261 426.686 317.624C427.255 317.965 427.702 318.435 428.027 319.032C428.372 319.608 428.545 320.248 428.545 320.952V327.672H413.03V331.768C413.03 332.109 413.142 332.408 413.365 332.664C413.609 332.899 413.894 333.016 414.219 333.016H428.545V335.64H414.219ZM413.03 325.048H426.015V320.952C426.015 320.611 425.893 320.323 425.649 320.088C425.426 319.832 425.151 319.704 424.826 319.704H414.219C413.894 319.704 413.609 319.832 413.365 320.088C413.142 320.323 413.03 320.611 413.03 320.952V325.048Z" fill="white"/>
<path d="M382 335.64V312.632H400.289C400.959 312.632 401.569 312.813 402.118 313.176C402.686 313.517 403.134 313.976 403.459 314.552C403.784 315.128 403.946 315.768 403.946 316.472V323.224C403.946 323.928 403.784 324.568 403.459 325.144C403.134 325.72 402.686 326.189 402.118 326.552C401.569 326.893 400.959 327.064 400.289 327.064H384.469V335.64H382ZM385.658 324.44H400.289C400.614 324.44 400.888 324.323 401.112 324.088C401.355 323.853 401.477 323.565 401.477 323.224V316.472C401.477 316.131 401.355 315.843 401.112 315.608C400.888 315.352 400.614 315.224 400.289 315.224H385.658C385.333 315.224 385.048 315.352 384.804 315.608C384.581 315.843 384.469 316.131 384.469 316.472V323.224C384.469 323.565 384.581 323.853 384.804 324.088C385.048 324.323 385.333 324.44 385.658 324.44Z" fill="white"/>
</g>
<defs>
<clipPath id="clip0_37_344">
<rect width="1196" height="377" fill="white"/>
</clipPath>
</defs>
</svg>
